<svg xmlns="http://www.w3.org/2000/svg" viewBox="0 0 818 50"><path d="M0 0h48v4h-46v21h46v25h-48v-2h46v-21h-46zm51 0h2v48h44v-48h2v50h-48zm51 0h48v27h-46v-2h44v-21h-44v46h-2zm51 0h48v27h-46v-2h44v-21h-44v44h46v2h-48zm51 0h46v25h2v25h-2v-23h-44v-2h42v-21h-42v46h-2zm51 0h48v4h-46v21h46v25h-48v-2h46v-21h-46zm51 0h48v27h-46v-2h44v-21h-44v44h46v2h-48zm51 0h46v25h2v25h-2v-23h-44v-2h42v-21h-42v46h-2zm51 0h10v4h-4v44h4v2h-10v-2h4v-44h-4zm13 0h48v50h-46v-2h44v-44h-44v46h-2zm51 0h2v48h44v-48h2v50h-48zm51 0h48v4h-46v21h46v25h-48v-2h46v-21h-46zm51 0h48v4h-46v21h46v25h-48v-2h46v-21h-46zm51 0h44v4h-21v46h-2v-46h-21zm47 0h48v50h-2v-23h-44v-2h44v-21h-44v46h-2zm51 0h44v4h-21v46h-2v-46h-21zm47 0h48v4h-46v21h46v25h-48v-2h46v-21h-46z"/><path style="fill:#7697cb" d="M428 19h8v25h-8z"/><path style="fill:#6c8fc2" d="M428 19h4v25h-4z"/><path style="fill:#416d9c" d="M428 19h8v25h-6v-2h4v-21h-4v23h-2z"/><path style="fill:#e17677" d="M441 27h8v17h-8z"/><path style="fill:#dc6c6d" d="M441 27h4v17h-4z"/><path style="fill:#c74243" d="M441 27h8v17h-6v-2h4v-13h-4v15h-2z"/><path style="fill:#8fce90" d="M454 11h8v33h-8z"/><path style="fill:#89c686" d="M454 11h4v33h-4z"/><path style="fill:#70a35e" d="M454 11h8v33h-6v-2h4v-29h-4v31h-2z"/></svg>
