<svg xmlns="http://www.w3.org/2000/svg" viewBox="0 0 64 64"><path style="fill:#7697cb" d="M4 16h16v44h-16z"/><path style="fill:#6c8fc2" d="M4 16h8v44h-8z"/><path style="fill:#416d9c" d="M4 16h16v44h-12v-4h8v-36h-8v40h-4z"/><path style="fill:#e17677" d="M24 28h16v32h-16z"/><path style="fill:#dc6c6d" d="M24 28h8v32h-8z"/><path style="fill:#c74243" d="M24 28h16v32h-12v-4h8v-24h-8v28h-4z"/><path style="fill:#8fce90" d="M44 4h16v56h-16z"/><path style="fill:#89c686" d="M44 4h8v56h-8z"/><path style="fill:#70a35e" d="M44 4h16v56h-12v-4h8v-48h-8v52h-4z"/></svg>
