<svg xmlns="http://www.w3.org/2000/svg" viewBox="0 0 64 64"><path style="fill:#8fce90" d="M54 60H44V4h16v56z"/><path style="fill:#7697cb" d="M14 60H4V16h16v44z"/><path style="fill:#89c686" d="M50 60h-6V4h8v56z"/><path style="fill:#e17677" d="M34 60H24V28h16v32z"/><path style="fill:#6c8fc2" d="M10 60H4V16h8v44z"/><path style="fill:#dc6c6d" d="M30 60h-6V28h8v32z"/><path style="fill:#70a35e" d="M52 60h-8V4h16v56zm0-4h4V8h-8v48z"/><path style="fill:#c74243" d="M32 60h-8V28h16v32zm0-4h4V32h-8v24z"/><path style="fill:#416d9c" d="M12 60H4V16h16v44zm0-4h4V20H8v36z"/></svg>
