<svg xmlns="http://www.w3.org/2000/svg" width="128" height="128" viewBox="0 0 33.867 33.867"><path style="fill:#8fce90;stroke-width:.264583" d="M75.058 173.785v-14.817h8.466v29.634h-8.466z" transform="translate(-51.731 -156.81)"/><path style="fill:#7697cb;stroke-width:.264583" d="M53.891 176.96v-11.642h8.467v23.284H53.89z" transform="translate(-51.731 -156.81)"/><path style="fill:#89c686;stroke-width:.264583" d="M75.058 173.785v-14.817h8.466l-4.233 2.117v25.4l4.233 2.117h-8.466z" transform="translate(-51.731 -156.81)"/><path style="fill:#e17677;stroke-width:.264583" d="M64.474 180.135v-8.467h8.467v16.934h-8.467z" transform="translate(-51.731 -156.81)"/><path style="fill:#6c8fc2;stroke-width:.264583" d="M53.891 176.96v-11.642h8.467l-4.234 2.117v19.05l4.234 2.117H53.89z" transform="translate(-51.731 -156.81)"/><path style="fill:#dc6c6d;stroke-width:.264583" d="M64.474 180.135v-8.467h8.467l-4.233 2.117v12.7l4.233 2.117h-8.467z" transform="translate(-51.731 -156.81)"/><path style="fill:#70a35e;stroke-width:.264583" d="M75.058 173.785v-14.817h8.466v29.634h-8.466zm6.35 0v-12.7h-4.234v25.4h4.234z" transform="translate(-51.731 -156.81)"/><path style="fill:#c74243;stroke-width:.264583" d="M64.474 180.135v-8.467H72.941v16.934H64.474zm6.35 0v-6.35H66.591v12.7H70.824z" transform="translate(-51.731 -156.81)"/><path style="fill:#416d9c;stroke-width:.264583" d="M53.891 176.96v-11.642H62.358v23.284H53.89zm6.35 0v-9.525H56.008v19.05H60.24z" transform="translate(-51.731 -156.81)"/></svg>
